<svg width="100" height="100" viewBox="0 0 100 100" fill="none" xmlns="http://www.w3.org/2000/svg">
<mask id="mask0_38_51" style="mask-type:luminance" maskUnits="userSpaceOnUse" x="0" y="0" width="100" height="100">
<path d="M0 3C0 1.34314 1.34315 0 3 0H97C98.6569 0 100 1.34315 100 3V97C100 98.6569 98.6569 100 97 100H3C1.34314 100 0 98.6569 0 97V3Z" fill="white"/>
</mask>
<g mask="url(#mask0_38_51)">
<path fill-rule="evenodd" clip-rule="evenodd" d="M0 3C0 1.34314 1.34315 0 3 0H97C98.6569 0 100 1.34315 100 3V97C100 98.6569 98.6569 100 97 100H3C1.34314 100 0 98.6569 0 97V3ZM66.6585 42.1929C66.7042 40.7853 67.5473 39.5143 68.772 38.8189C71.9972 36.9877 71.7637 34.5637 70.5336 32.4544C70.0691 31.6579 69.1696 31.25 68.2475 31.25H32.1682C31.3416 31.25 30.5357 31.5792 30.0267 32.2305C28.2449 34.5108 27.483 37.204 31.1434 39.1281C32.4038 39.7906 33.2838 41.0582 33.3545 42.4804C33.4294 43.9889 33.7092 45.484 34.1892 46.924C34.9278 49.1397 36.1238 51.1754 37.6997 52.8992C39.2756 54.623 41.1962 55.9963 43.3369 56.9301C45.4777 57.8639 47.7908 58.3374 50.1263 58.3198C52.4618 58.3022 54.7675 57.7939 56.894 56.8279C59.0204 55.8619 60.9201 54.4598 62.4698 52.7124C64.0195 50.9651 65.1847 48.9115 65.8897 46.6849C66.3515 45.2267 66.6091 43.7147 66.6585 42.1929ZM62.2516 44.1378C62.6016 42.4084 60.9711 41.103 59.2146 41.2697C56.5 41.5273 53.2668 41.6687 49.4333 41.6687C46.0827 41.6687 43.2135 41.5614 40.765 41.3622C39.0128 41.2196 37.4079 42.5418 37.7739 44.2612C37.9 44.8535 38.0693 45.4372 38.281 46.0076C38.8732 47.6032 39.7849 49.0611 40.9605 50.2919C42.136 51.5227 43.5505 52.5005 45.1172 53.1653C46.684 53.8301 48.37 54.168 50.072 54.1582C51.7739 54.1484 53.4559 53.7911 55.0149 53.1083C56.5739 52.4255 57.977 51.4315 59.1383 50.1872C60.2996 48.943 61.1945 47.4747 61.7683 45.8723C61.9714 45.3052 62.1327 44.7254 62.2516 44.1378ZM44.6068 67.5624C46.3159 66.978 47.9167 68.3929 47.9167 70.1992V73.2372C47.9167 74.5075 47.0645 75.5879 46.0761 76.3858C45.859 76.561 45.6532 76.7511 45.4604 76.9549C44.3408 78.1382 42.7439 79.1594 41.1703 78.7378L37.8914 77.8595C36.1416 77.3907 35.1905 75.4696 36.2084 73.9712C37.2119 72.494 38.4502 71.1813 39.881 70.0883C41.3157 68.9922 42.9126 68.1417 44.6068 67.5624ZM55.3929 67.5607C53.684 66.976 52.0833 68.3907 52.0833 70.1969V73.2337C52.0833 74.5046 52.9363 75.5861 53.9251 76.3846C54.1483 76.5649 54.359 76.7603 54.5554 76.9692C55.6729 78.1578 57.2597 79.1563 58.8356 78.7341L62.1082 77.8575C63.8581 77.3887 64.8092 75.4673 63.7909 73.9689C62.7874 72.4923 61.5492 71.1801 60.1186 70.0874C58.6839 68.9916 57.087 68.1405 55.3929 67.5607ZM66.6667 83.3333C66.6667 82.0857 65.4402 81.2769 64.2351 81.5999L57.0122 83.5361C56.1566 83.7655 55.4786 84.3881 54.935 85.0876C54.4971 85.651 53.9639 86.138 53.3562 86.5248C52.3532 87.1633 51.1889 87.5024 50 87.5024C48.8111 87.5024 47.6468 87.1633 46.6438 86.5248C46.0361 86.138 45.5029 85.651 45.065 85.0876C44.5214 84.3881 43.8434 83.7655 42.9878 83.5361L35.7649 81.5999C34.5594 81.2768 33.3326 82.0852 33.3333 83.3333V85.4167C33.3333 85.9692 33.1138 86.4991 32.7231 86.8898C32.3324 87.2805 31.8025 87.5 31.25 87.5C30.6975 87.5 30.1676 87.2805 29.7769 86.8898C29.3862 86.4991 29.1667 85.9692 29.1667 85.4167C29.1667 84.9172 28.5531 84.6169 28.0927 84.8105C27.8653 84.9062 27.6291 84.9817 27.3868 85.0359C26.7308 85.1824 26.0491 85.168 25.4 84.9938L21.375 83.9146C20.8464 83.7729 20.3509 83.5285 19.9167 83.1953C19.4826 82.8621 19.1184 82.4467 18.8448 81.9727C18.5712 81.4987 18.3937 80.9755 18.3224 80.4329C18.2511 79.8903 18.2874 79.339 18.4292 78.8104L20.0458 72.775C20.1875 72.2464 20.4319 71.7509 20.7651 71.3167C21.0983 70.8826 21.5137 70.5183 21.9877 70.2448C22.4617 69.9712 22.9849 69.7937 23.5275 69.7224C24.0701 69.6511 24.6214 69.6874 25.15 69.8292L29.175 70.9062C29.7517 71.0606 30.2884 71.3373 30.7486 71.7177C31.3291 72.1975 32.3581 72.2174 32.7824 71.595C34.5201 69.0462 36.8069 66.9087 39.4832 65.3449C42.6743 63.4802 46.3041 62.4983 50 62.5C53.694 62.4986 57.322 63.4798 60.5118 65.3428C63.1881 66.906 65.4751 69.0427 67.2133 71.5909C67.6377 72.2131 68.6646 72.1944 69.246 71.7157C69.7057 71.3372 70.2413 71.0619 70.8167 70.9083L74.8417 69.8292C75.3704 69.6874 75.9218 69.6512 76.4645 69.7227C77.0072 69.7941 77.5305 69.9718 78.0045 70.2456C78.4785 70.5193 78.894 70.8838 79.2271 71.3182C79.5602 71.7525 79.8044 72.2483 79.9458 72.7771L81.5625 78.8125C81.7042 79.3412 81.7404 79.8927 81.669 80.4354C81.5975 80.9781 81.4198 81.5014 81.1461 81.9754C80.8723 82.4494 80.5079 82.8648 80.0735 83.1979C79.6391 83.531 79.1434 83.7752 78.6146 83.9167L74.5917 84.9958C73.9444 85.1698 73.2647 85.1848 72.6104 85.0397C72.3663 84.9856 72.1285 84.9098 71.8996 84.8137C71.4419 84.6215 70.8333 84.9202 70.8333 85.4167C70.8333 85.9692 70.6138 86.4991 70.2231 86.8898C69.8324 87.2805 69.3025 87.5 68.75 87.5C68.1975 87.5 67.6676 87.2805 67.2769 86.8898C66.8862 86.4991 66.6667 85.9692 66.6667 85.4167V83.3333ZM50 83.3333C50.5525 83.3333 51.0824 83.1138 51.4731 82.7231C51.8638 82.3324 52.0833 81.8025 52.0833 81.25C52.0833 80.6975 51.8638 80.1676 51.4731 79.7769C51.0824 79.3862 50.5525 79.1667 50 79.1667C49.4475 79.1667 48.9176 79.3862 48.5269 79.7769C48.1362 80.1676 47.9167 80.6975 47.9167 81.25C47.9167 81.8025 48.1362 82.3324 48.5269 82.7231C48.9176 83.1138 49.4475 83.3333 50 83.3333ZM31.25 19.7917C31.25 18.8812 40.6583 12.5 50 12.5C59.3417 12.5 68.75 18.8812 68.75 19.7917C68.75 23.0417 68.4042 24.9667 68.1125 26.0146C67.9187 26.7021 67.275 27.0833 66.5604 27.0833H33.4396C32.725 27.0833 32.0812 26.7021 31.8875 26.0146C31.5958 24.9667 31.25 23.0417 31.25 19.7917ZM46.875 18.75C46.3225 18.75 45.7926 18.9695 45.4019 19.3602C45.0112 19.7509 44.7917 20.2808 44.7917 20.8333C44.7917 21.3859 45.0112 21.9158 45.4019 22.3065C45.7926 22.6972 46.3225 22.9167 46.875 22.9167H53.125C53.6775 22.9167 54.2074 22.6972 54.5981 22.3065C54.9888 21.9158 55.2083 21.3859 55.2083 20.8333C55.2083 20.2808 54.9888 19.7509 54.5981 19.3602C54.2074 18.9695 53.6775 18.75 53.125 18.75H46.875Z" fill="#D51B53"/>
</g>
</svg>
